<?xml version="1.0" standalone="no"?>
<!DOCTYPE svg PUBLIC "-//W3C//DTD SVG 20010904//EN"
 "http://www.w3.org/TR/2001/REC-SVG-20010904/DTD/svg10.dtd">
<svg version="1.0" xmlns="http://www.w3.org/2000/svg"
 width="1250.000000pt" height="1250.000000pt" viewBox="0 0 1250.000000 1250.000000"
 preserveAspectRatio="xMidYMid meet">
<metadata>
Created by potrace 1.14, written by Peter Selinger 2001-2017
</metadata>
<g transform="translate(0.000000,1250.000000) scale(0.100000,-0.100000)"
fill="#000000" stroke="none">
<path d="M6177 11979 c-190 -212 -287 -379 -283 -486 3 -73 16 -111 96 -288
36 -79 50 -118 46 -123 -3 -2 -31 5 -63 16 -135 47 -256 49 -358 5 -34 -14
-128 -75 -145 -93 -3 -3 -36 -32 -75 -65 -83 -70 -108 -95 -103 -100 2 -2 58
-6 123 -9 234 -10 294 -29 345 -111 65 -105 -22 -285 -172 -359 -184 -90 -402
-67 -568 60 -30 23 -119 106 -198 184 -78 79 -145 140 -149 136 -4 -4 -9 -92
-10 -195 -3 -222 -19 -315 -68 -420 -84 -177 -199 -254 -368 -247 -74 3 -143
26 -183 62 -11 11 -45 64 -75 118 -93 170 -181 236 -374 283 -31 7 -395 16
-395 10 0 -13 123 -131 290 -279 262 -233 603 -580 760 -774 l80 -98 -39 -38
c-46 -44 -61 -103 -41 -163 29 -89 97 -125 206 -109 l65 10 44 -81 c25 -45 45
-87 45 -92 0 -6 -11 -18 -24 -26 -57 -38 -78 -133 -47 -211 18 -45 51 -52
-286 58 -344 112 -599 168 -763 168 -109 0 -130 -3 -207 -32 -148 -55 -278
-191 -323 -338 -20 -65 -29 -200 -17 -257 4 -16 9 -44 12 -61 9 -57 47 -168
78 -229 32 -64 181 -309 204 -336 7 -8 13 -20 13 -26 0 -7 -46 -46 -102 -89
-57 -43 -119 -92 -138 -110 -19 -17 -64 -58 -100 -89 -222 -198 -438 -512
-554 -808 -25 -64 -59 -196 -72 -284 -3 -21 -7 -45 -9 -53 -8 -28 -17 -135
-19 -214 -2 -77 5 -144 29 -281 17 -97 72 -235 94 -235 4 0 8 17 9 38 9 128
55 315 109 434 79 175 184 320 339 467 93 88 234 191 261 191 16 0 16 1 -97
-245 -138 -300 -167 -373 -236 -590 -32 -99 -123 -437 -128 -475 -1 -8 -8 -37
-14 -65 -105 -435 -39 -980 164 -1352 51 -93 167 -272 230 -355 49 -62 171
-188 185 -188 4 0 -12 57 -37 128 -93 263 -118 390 -118 597 0 82 12 301 18
330 2 12 7 48 11 80 9 77 56 278 88 375 36 110 88 243 99 255 9 9 4 -101 -8
-205 -10 -78 -12 -538 -3 -585 5 -27 12 -63 15 -80 27 -154 110 -391 264 -755
83 -196 191 -391 266 -477 10 -12 47 -54 81 -95 135 -159 386 -391 555 -511
61 -44 285 -187 292 -187 2 0 43 -24 92 -53 381 -229 675 -468 858 -696 84
-104 476 -654 476 -667 0 -3 18 -29 40 -58 22 -29 40 -58 40 -64 0 -31 27 -1
109 121 141 210 342 495 398 567 108 138 147 184 230 267 184 184 416 356 763
563 183 109 349 217 411 267 114 92 244 211 344 314 276 285 370 436 547 884
32 83 63 159 68 170 37 84 93 266 116 374 25 119 29 172 29 376 0 175 -4 257
-21 465 -4 48 -3 71 3 65 10 -10 63 -139 67 -160 1 -5 4 -14 8 -20 6 -11 48
-146 47 -155 0 -3 4 -17 10 -33 6 -15 13 -38 15 -50 2 -12 11 -51 19 -87 8
-36 18 -94 22 -130 3 -36 8 -72 10 -80 8 -29 18 -207 18 -315 1 -213 -22 -335
-106 -578 -31 -86 -52 -157 -47 -157 19 0 163 158 227 249 221 311 313 524
372 861 41 233 42 410 5 655 -8 53 -67 309 -94 410 -84 314 -150 503 -262 745
-70 151 -141 307 -149 328 -8 21 -7 23 13 17 72 -21 293 -212 410 -355 157
-191 265 -455 285 -695 3 -38 7 -71 8 -73 10 -12 48 53 69 117 55 168 74 416
46 581 -46 273 -73 361 -174 558 -168 327 -381 572 -723 831 -46 35 -83 67
-83 71 0 5 29 53 63 107 115 177 196 331 212 403 53 232 47 364 -23 494 -66
123 -239 251 -367 272 -61 9 -166 11 -209 3 -22 -4 -61 -10 -86 -13 -47 -6
-59 -9 -150 -27 -100 -20 -272 -69 -475 -136 -291 -95 -276 -92 -255 -53 6 11
13 44 15 73 4 59 -21 116 -66 148 l-27 19 49 88 50 89 49 -10 c102 -20 176 10
211 87 34 75 18 143 -47 199 l-25 22 81 100 c175 216 519 562 835 840 44 39
113 103 154 143 l74 74 -184 -3 c-227 -5 -332 -27 -427 -91 -80 -54 -116 -99
-178 -216 -21 -41 -50 -85 -64 -99 -60 -61 -190 -87 -298 -59 -107 27 -174 83
-236 197 -33 60 -80 179 -71 179 2 0 0 14 -5 30 -5 17 -10 115 -11 218 -1 103
-5 198 -9 212 -7 24 -17 16 -166 -133 -88 -87 -187 -176 -220 -197 -251 -159
-588 -95 -699 134 -46 96 -36 177 31 235 55 49 159 68 382 70 l63 1 -55 51
c-107 99 -206 176 -259 202 -103 50 -222 54 -355 12 -46 -15 -86 -25 -88 -22
-2 2 3 21 12 43 15 36 27 63 83 186 31 70 50 151 47 205 -7 106 -123 291 -302
481 l-50 54 -67 -73z"/>
</g>
</svg>
